<svg xmlns="http://www.w3.org/2000/svg" width="27.406" height="28.557" viewBox="0 0 27.406 28.557">
  <defs>
    <style>
      .cls-1 {
        fill: #fff;
      }
    </style>
  </defs>
  <path id="love_1_" data-name="love (1)" class="cls-1" d="M-730.694,1100.81a6.714,6.714,0,0,0-4.036-.634,2.256,2.256,0,0,0-.768.206.6.6,0,0,0-.234.406.585.585,0,0,0,.207.516.255.255,0,0,0,.081.047,1.047,1.047,0,0,0,.275.087c.035,0,.166-.029.283-.053a5.508,5.508,0,0,1,3.3.282,6.965,6.965,0,0,1,1.311.792,5.616,5.616,0,0,1,1.157,1.246,5.332,5.332,0,0,1,.672,1.4.767.767,0,0,0,.335.482.54.54,0,0,0,.43.068.537.537,0,0,0,.338-.274c.079-.12.1-.13.114-.259a2.2,2.2,0,0,0-.233-.784,6.671,6.671,0,0,0-2.046-2.769,6.93,6.93,0,0,0-1.187-.757Zm-.606,1.924a5.216,5.216,0,0,0-.665-.348,4.788,4.788,0,0,0-2.32-.293,2.311,2.311,0,0,0-.811.217.687.687,0,0,0-.25.433.691.691,0,0,0,.13.4.732.732,0,0,0,.174.136.794.794,0,0,0,.585.049,3.512,3.512,0,0,1,2.769.516,3.494,3.494,0,0,1,1.337,1.746c.159.463.208.535.424.641a.549.549,0,0,0,.62-.075.573.573,0,0,0,.211-.491,3.9,3.9,0,0,0-.264-.73,4.812,4.812,0,0,0-1.333-1.816,5.046,5.046,0,0,0-.607-.386Zm-1.011,1.689a2.644,2.644,0,0,0-1.56-.36,2.126,2.126,0,0,0-.8.19.613.613,0,0,0-.136.86.731.731,0,0,0,.421.208,1.719,1.719,0,0,0,.31-.037,1.593,1.593,0,0,1,1.182.141,1.6,1.6,0,0,1,.713.953c.093.295.17.365.351.455a.523.523,0,0,0,.43.068c.18-.058.205-.106.311-.289.087-.15.115-.159.114-.259a2.675,2.675,0,0,0-.233-.784,2.641,2.641,0,0,0-1.107-1.145Zm-1.016,1.759a.711.711,0,0,0-.744.039.784.784,0,0,0-.308.472.65.65,0,0,0,.122.539.773.773,0,0,0,.5.254.768.768,0,0,0,.47-.126.454.454,0,0,0,.195-.212.513.513,0,0,0,.1-.3.713.713,0,0,0-.338-.664Zm-4.34-.233a5.9,5.9,0,0,0-4.268-.732,5.649,5.649,0,0,0-3.586,2.837c-.966,1.674-.675,3.845.019,6.217s1.813,5,2.753,7.544a.517.517,0,0,0,.568.328c2.674-.458,5.49-.783,7.894-1.36s4.461-1.414,5.437-3.1a5.7,5.7,0,0,0,.652-4.567,5.9,5.9,0,0,0-2.784-3.3,5.645,5.645,0,0,0-4.313-.217,5.7,5.7,0,0,0-2.371-3.642Z" transform="translate(96.131 -1316.331) rotate(-30)"/>
</svg>
